<?xml version="1.0" encoding="utf-8"?>
<!-- Generator: Adobe Illustrator 19.0.0, SVG Export Plug-In . SVG Version: 6.00 Build 0)  -->
<svg version="1.1" id="Layer_1" xmlns="http://www.w3.org/2000/svg" xmlns:xlink="http://www.w3.org/1999/xlink" x="0px" y="0px"
	 viewBox="-212 341 186 112" style="enable-background:new -212 341 186 112;" xml:space="preserve">
<style type="text/css">
	.st0{fill:#FFFFFF;}
	.st1{fill:#E3E3E3;}
	.st2{fill:#E4E4E4;}
	.st3{fill:#F1F1F1;}
</style>
<g>
	<path class="st0" d="M-200,414.8h44c0.6,0,1.2,0.5,1.2,1.2v29.8c0,0.6-0.5,1.2-1.2,1.2h-44c-0.6,0-1.2-0.5-1.2-1.2v-29.8
		C-201.1,415.3-200.6,414.8-200,414.8z"/>
	<path class="st0" d="M-84.6,434.9h44c0.6,0,1.2,0.5,1.2,1.2v8c0,0.6-0.5,1.2-1.2,1.2h-44c-0.6,0-1.2-0.5-1.2-1.2v-8
		C-85.8,435.5-85.2,434.9-84.6,434.9z"/>
	<path class="st0" d="M-84.6,421.4h44c0.6,0,1.2,0.5,1.2,1.2v8c0,0.6-0.5,1.2-1.2,1.2h-44c-0.6,0-1.2-0.5-1.2-1.2v-8
		C-85.8,421.9-85.2,421.4-84.6,421.4z"/>
	<path class="st0" d="M-84.3,385.7h44c0.6,0,1.2,0.5,1.2,1.2v29.8c0,0.6-0.5,1.2-1.2,1.2h-44c-0.6,0-1.2-0.5-1.2-1.2v-29.8
		C-85.5,386.3-85,385.7-84.3,385.7z"/>
	<path class="st0" d="M-142.1,399.6h44c0.6,0,1.2,0.5,1.2,1.2v18.4c0,0.6-0.5,1.2-1.2,1.2h-44c-0.6,0-1.2-0.5-1.2-1.2v-18.4
		C-143.3,400.1-142.7,399.6-142.1,399.6z"/>
	<path class="st0" d="M-142.1,385.5h44c0.6,0,1.2,0.5,1.2,1.2v9c0,0.6-0.5,1.2-1.2,1.2h-44c-0.6,0-1.2-0.5-1.2-1.2v-9
		C-143.3,386-142.7,385.5-142.1,385.5z"/>
	<path class="st1" d="M-145.4,373.5h50.3c0.6,0,1.2,0.5,1.2,1.2v47.5c0,0.6-0.5,1.2-1.2,1.2h-50.2c-0.6,0-1.2-0.5-1.2-1.2v-47.5
		C-146.6,374.1-146,373.5-145.4,373.5z"/>
	<path class="st0" d="M-142.1,385.5h44c0.6,0,1.2,0.5,1.2,1.2v9c0,0.6-0.5,1.2-1.2,1.2h-44c-0.6,0-1.2-0.5-1.2-1.2v-9
		C-143.3,386-142.7,385.5-142.1,385.5z"/>
	<g>
		<path class="st2" d="M-140.8,390.1c0-0.4,0.3-0.6,0.6-0.6h8.3c0.4,0,0.6,0.3,0.6,0.6v2.3c0,0.4-0.3,0.6-0.6,0.6h-8.3
			c-0.4,0-0.6-0.3-0.6-0.6V390.1z"/>
	</g>
	<path class="st0" d="M-142.1,399.6h44c0.6,0,1.2,0.5,1.2,1.2v18.4c0,0.6-0.5,1.2-1.2,1.2h-44c-0.6,0-1.2-0.5-1.2-1.2v-18.4
		C-143.3,400.1-142.7,399.6-142.1,399.6z"/>
	<g>
		<path class="st2" d="M-140.3,403.6h33.9c0.4,0,0.6,0.3,0.6,0.6v2.3c0,0.4-0.3,0.6-0.6,0.6h-33.9c-0.4,0-0.6-0.3-0.6-0.6v-2.3
			C-140.8,403.8-140.6,403.6-140.3,403.6z"/>
		<path class="st2" d="M-140.3,409.7h11.7c0.4,0,0.6,0.3,0.6,0.6v2.3c0,0.4-0.3,0.6-0.6,0.6h-11.7c-0.4,0-0.6-0.3-0.6-0.6v-2.3
			C-140.8,409.9-140.6,409.7-140.3,409.7z"/>
	</g>
	<path class="st0" d="M-143,378.6c0-0.4,0.3-0.6,0.6-0.6h19.8c0.4,0,0.6,0.3,0.6,0.6v2.8c0,0.4-0.3,0.6-0.6,0.6h-19.8
		c-0.4,0-0.6-0.3-0.6-0.6V378.6z"/>
	<path class="st1" d="M-87.6,373.5h50.2c0.6,0,1.2,0.5,1.2,1.2V449c0,0.6-0.5,1.2-1.2,1.2h-50.2c-0.6,0-1.2-0.5-1.2-1.2v-74.2
		C-88.8,374.1-88.2,373.5-87.6,373.5z"/>
	<path class="st0" d="M-84.3,385.7h44c0.6,0,1.2,0.5,1.2,1.2v29.8c0,0.6-0.5,1.2-1.2,1.2h-44c-0.6,0-1.2-0.5-1.2-1.2v-29.8
		C-85.5,386.3-85,385.7-84.3,385.7z"/>
	<g>
		<rect x="-85.5" y="384.7" class="st3" width="46.3" height="24.7"/>
		<path class="st2" d="M-83.2,412.4c0-0.4,0.3-0.6,0.5-0.6h9.1c0.4,0,0.5,0.3,0.5,0.6v2.3c0,0.4-0.3,0.6-0.5,0.6h-9.1
			c-0.4,0-0.5-0.3-0.5-0.6V412.4z"/>
	</g>
	<path class="st0" d="M-84.6,421.4h44c0.6,0,1.2,0.5,1.2,1.2v8c0,0.6-0.5,1.2-1.2,1.2h-44c-0.6,0-1.2-0.5-1.2-1.2v-8
		C-85.8,421.9-85.2,421.4-84.6,421.4z"/>
	<path class="st2" d="M-82.8,424.9h16.4c0.4,0,0.6,0.3,0.6,0.6v2.3c0,0.4-0.3,0.6-0.6,0.6h-16.4c-0.4,0-0.6-0.3-0.6-0.6v-2.3
		C-83.3,425.1-83.1,424.9-82.8,424.9z"/>
	<path class="st0" d="M-84.6,434.9h44c0.6,0,1.2,0.5,1.2,1.2v8c0,0.6-0.5,1.2-1.2,1.2h-44c-0.6,0-1.2-0.5-1.2-1.2v-8
		C-85.8,435.5-85.2,434.9-84.6,434.9z"/>
	<path class="st2" d="M-82.8,438.4h10.9c0.4,0,0.6,0.3,0.6,0.6v2.3c0,0.4-0.3,0.6-0.6,0.6h-10.9c-0.4,0-0.6-0.3-0.6-0.6V439
		C-83.3,438.7-83.1,438.4-82.8,438.4z"/>
	<path class="st0" d="M-85.2,378.6c0-0.4,0.3-0.6,0.6-0.6H-72c0.4,0,0.6,0.3,0.6,0.6v2.8c0,0.4-0.3,0.6-0.6,0.6h-12.6
		c-0.4,0-0.6-0.3-0.6-0.6V378.6z"/>
	<path class="st1" d="M-203.2,373.5h50.2c0.6,0,1.2,0.5,1.2,1.2v75.8c0,0.6-0.5,1.2-1.2,1.2h-50.2c-0.6,0-1.2-0.5-1.2-1.2v-75.8
		C-204.3,374.1-203.8,373.5-203.2,373.5z"/>
	<path class="st0" d="M-199.9,385.7h44c0.6,0,1.2,0.5,1.2,1.2v8.8c0,0.6-0.5,1.2-1.2,1.2h-44c-0.6,0-1.2-0.5-1.2-1.2v-8.8
		C-201.1,386.3-200.5,385.7-199.9,385.7z"/>
	<path class="st2" d="M-198.1,389.5h22.3c0.4,0,0.6,0.3,0.6,0.6v2.3c0,0.4-0.3,0.6-0.6,0.6h-22.3c-0.4,0-0.6-0.3-0.6-0.6v-2.3
		C-198.7,389.7-198.4,389.5-198.1,389.5z"/>
	<path class="st0" d="M-199.9,400.4h44c0.6,0,1.2,0.5,1.2,1.2v8.8c0,0.6-0.5,1.2-1.2,1.2h-44c-0.6,0-1.2-0.5-1.2-1.2v-8.8
		C-201.1,400.9-200.5,400.4-199.9,400.4z"/>
	<path class="st2" d="M-198.1,404.1h16.6c0.4,0,0.6,0.3,0.6,0.6v2.3c0,0.4-0.3,0.6-0.6,0.6h-16.6c-0.4,0-0.6-0.3-0.6-0.6v-2.3
		C-198.7,404.4-198.4,404.1-198.1,404.1z"/>
	<path class="st2" d="M-198.3,440.3h10.9c0.4,0,0.6,0.3,0.6,0.6v2.3c0,0.4-0.3,0.6-0.6,0.6h-10.9c-0.4,0-0.6-0.3-0.6-0.6V441
		C-199,440.6-198.7,440.3-198.3,440.3z"/>
	<path class="st0" d="M-200,414.8h44c0.6,0,1.2,0.5,1.2,1.2v29.8c0,0.6-0.5,1.2-1.2,1.2h-44c-0.6,0-1.2-0.5-1.2-1.2v-29.8
		C-201.1,415.3-200.6,414.8-200,414.8z"/>
	<g>
		<rect x="-201.1" y="413.8" class="st3" width="46.5" height="24.7"/>
		<path class="st2" d="M-198.4,440.8h9.2c0.4,0,0.5,0.3,0.5,0.6v2.3c0,0.4-0.3,0.6-0.5,0.6h-9.2c-0.4,0-0.5-0.3-0.5-0.6v-2.3
			C-198.9,441-198.6,440.8-198.4,440.8z"/>
	</g>
	<path class="st0" d="M-200.2,378h11.7c0.4,0,0.6,0.3,0.6,0.6v2.8c0,0.4-0.3,0.6-0.6,0.6h-11.7c-0.4,0-0.6-0.3-0.6-0.6v-2.8
		C-200.8,378.3-200.5,378-200.2,378z"/>
</g>
<path class="st0" d="M-109.2,344.3h-20c-1.7,0-3.1,1.4-3.1,3.1v20c0,0.8,0.3,1.6,0.9,2.2c0.6,0.6,1.4,0.9,2.2,0.9h20
	c0.8,0,1.6-0.3,2.2-0.9c0.6-0.6,0.9-1.4,0.9-2.2v-20C-106.1,345.7-107.5,344.3-109.2,344.3z M-121,360.6c0,0.2-0.1,0.4-0.3,0.6
	s-0.5,0.2-0.7,0.2h-4.4c-0.6,0-1-0.4-1-0.8V350c0-0.5,0.5-0.8,1-0.8h4.4c0.6,0,1,0.4,1,0.8L-121,360.6z M-110.9,357.3
	c0,0.3-0.1,0.5-0.3,0.7s-0.5,0.3-0.7,0.3h-4.4c-0.6,0-1-0.5-1-1v-7c0-0.6,0.5-1,1-1h4.4c0.6,0,1,0.5,1,1L-110.9,357.3z"/>
<path class="st0" d="M-113.5,350.3c0-0.3-0.2-0.5-0.5-0.5h-2c-0.3,0-0.5,0.2-0.5,0.5v3.2c0,0.3,0.2,0.5,0.5,0.5h2
	c0.1,0,0.2,0,0.3-0.1c0.1-0.1,0.1-0.2,0.1-0.3L-113.5,350.3z"/>
<path class="st0" d="M-123.7,350.5c0-0.3-0.2-0.6-0.5-0.6h-2c-0.3,0-0.5,0.3-0.5,0.6v4c0,0.3,0.2,0.6,0.5,0.6h2
	c0.1,0,0.2-0.1,0.3-0.2c0.1-0.1,0.1-0.3,0.1-0.4L-123.7,350.5z"/>
</svg>
