<?xml version="1.0" standalone="no"?>
<!DOCTYPE svg PUBLIC "-//W3C//DTD SVG 20010904//EN"
 "http://www.w3.org/TR/2001/REC-SVG-20010904/DTD/svg10.dtd">
<svg version="1.0" xmlns="http://www.w3.org/2000/svg"
 width="300.000000pt" height="300.000000pt" viewBox="0 0 300.000000 300.000000"
 preserveAspectRatio="xMidYMid meet">
<metadata>
Created by potrace 1.14, written by Peter Selinger 2001-2017
</metadata>
<g transform="translate(0.000000,300.000000) scale(0.100000,-0.100000)"
fill="#000000" stroke="none">
<path d="M280 2918 c-25 -12 -48 -21 -52 -20 -4 1 -28 -18 -53 -41 -25 -24
-47 -41 -50 -39 -3 3 -5 -2 -5 -11 0 -9 -5 -17 -11 -17 -5 0 -8 -4 -5 -9 4 -5
2 -11 -4 -13 -15 -5 -48 -107 -46 -144 1 -19 -3 -35 -9 -37 -6 -2 -5 -10 4
-20 9 -11 10 -17 2 -17 -6 0 -11 -5 -11 -11 0 -5 6 -7 13 -3 9 6 9 4 1 -7 -10
-14 -11 -85 -1 -95 2 -3 1 -20 -3 -39 -5 -20 -4 -33 1 -29 5 3 9 1 9 -5 0 -5
-6 -11 -13 -14 -9 -3 -9 -7 2 -20 9 -11 10 -17 2 -17 -6 0 -11 -5 -11 -11 0
-5 6 -7 13 -3 9 6 9 4 2 -7 -11 -15 -13 -68 -3 -84 3 -6 2 -19 -2 -30 -4 -11
-4 -30 1 -42 5 -14 4 -23 -4 -26 -9 -3 -9 -8 2 -20 9 -11 10 -17 2 -17 -6 0
-11 -5 -11 -11 0 -5 6 -7 13 -3 9 6 9 4 1 -7 -10 -14 -11 -85 -1 -95 2 -3 1
-20 -3 -39 -5 -20 -4 -33 1 -29 5 3 9 1 9 -5 0 -5 -6 -11 -12 -14 -10 -3 -10
-7 1 -20 9 -11 10 -17 2 -17 -6 0 -11 -5 -11 -11 0 -5 6 -7 13 -3 9 6 9 4 2
-7 -11 -15 -13 -68 -3 -84 3 -6 2 -19 -2 -30 -4 -11 -4 -30 1 -42 5 -14 4 -23
-4 -26 -9 -3 -9 -8 2 -20 9 -11 10 -17 2 -17 -6 0 -11 -5 -11 -11 0 -5 6 -7
12 -3 10 6 10 4 2 -7 -10 -14 -11 -85 -1 -95 2 -3 1 -20 -3 -39 -5 -20 -4 -33
1 -29 5 3 9 1 9 -5 0 -5 -6 -11 -12 -14 -10 -3 -10 -7 1 -20 9 -11 10 -17 2
-17 -6 0 -11 -5 -11 -11 0 -5 6 -7 13 -3 9 6 9 4 2 -7 -11 -15 -13 -68 -3 -84
3 -6 2 -19 -2 -30 -4 -11 -4 -30 1 -42 5 -14 4 -23 -4 -26 -9 -3 -9 -8 2 -20
9 -11 10 -17 2 -17 -6 0 -11 -5 -11 -11 0 -5 6 -7 13 -3 9 6 9 4 1 -7 -10 -14
-11 -85 -1 -95 2 -3 1 -20 -3 -39 -5 -20 -4 -33 1 -29 5 3 9 1 9 -5 0 -5 -6
-11 -13 -14 -9 -3 -9 -7 2 -20 9 -11 10 -17 2 -17 -6 0 -11 -5 -11 -11 0 -5 6
-7 12 -3 10 6 10 4 3 -7 -11 -15 -13 -68 -3 -84 3 -6 2 -19 -2 -30 -4 -11 -4
-30 1 -42 5 -14 4 -23 -4 -26 -9 -3 -9 -8 2 -20 9 -11 10 -17 2 -17 -6 0 -11
-5 -11 -11 0 -5 6 -7 12 -3 10 6 10 4 2 -7 -10 -14 -11 -85 -1 -95 2 -3 1 -20
-3 -39 -5 -20 -4 -33 1 -29 5 3 9 1 9 -5 0 -5 -6 -11 -12 -14 -10 -3 -10 -7 1
-20 10 -13 10 -17 1 -17 -9 0 -9 -4 1 -17 9 -10 9 -14 2 -10 -9 6 -8 -3 2 -28
9 -19 15 -36 14 -37 -5 -8 14 -48 22 -48 6 0 8 -4 4 -10 -3 -5 2 -19 12 -30
39 -47 74 -80 83 -80 6 0 10 -4 10 -10 0 -5 11 -12 25 -16 14 -3 25 -10 25
-14 0 -5 11 -7 25 -6 13 2 23 -2 22 -7 -1 -6 24 -11 61 -13 35 -1 66 -5 70 -9
4 -5 1 -5 -7 0 -10 6 -12 4 -7 -4 6 -9 14 -8 33 5 20 13 25 13 21 2 -4 -9 1
-14 12 -14 10 0 16 4 14 8 -6 9 -7 9 54 11 23 1 42 -1 42 -5 0 -5 -5 -8 -12
-8 -6 0 -9 -3 -6 -6 4 -3 18 2 32 11 14 10 26 13 26 7 0 -6 -6 -13 -12 -16 -7
-2 -3 -4 9 -2 12 1 26 6 30 11 5 4 2 5 -6 0 -9 -5 -12 -4 -7 3 9 15 38 3 29
-12 -3 -6 -1 -6 8 1 17 17 32 17 22 1 -4 -7 6 -5 21 6 21 13 28 15 24 4 -4 -9
1 -14 12 -14 10 0 16 4 14 8 -5 8 2 11 31 11 31 0 36 -3 29 -15 -6 -10 -4 -10
7 -1 17 17 32 17 22 1 -4 -7 6 -5 21 6 21 13 28 15 24 4 -4 -9 1 -14 12 -14
10 0 16 4 14 8 -3 4 -2 8 3 9 4 0 16 2 25 4 10 2 21 -2 25 -7 4 -7 1 -8 -7 -3
-9 5 -11 4 -6 -4 6 -9 14 -8 33 5 20 13 25 13 21 2 -4 -9 1 -14 12 -14 10 0
16 4 14 8 -6 9 -7 9 54 11 23 1 42 -1 42 -5 0 -5 -5 -8 -12 -8 -6 0 -9 -3 -6
-6 4 -3 18 2 32 11 16 11 26 13 26 6 0 -6 -5 -11 -12 -11 -6 0 -8 -3 -5 -7 4
-3 15 2 26 11 14 13 21 14 27 5 5 -8 3 -10 -6 -4 -9 5 -11 4 -6 -4 6 -9 14 -8
33 5 20 13 25 13 21 2 -4 -9 1 -14 12 -14 10 0 16 4 14 8 -6 9 -7 9 54 11 23
1 42 -1 42 -5 0 -5 -5 -8 -12 -8 -6 0 -9 -3 -6 -6 4 -3 18 2 32 11 16 11 26
13 26 6 0 -6 -5 -11 -12 -11 -6 0 -8 -3 -5 -7 4 -3 15 2 26 11 14 13 21 14 27
5 5 -8 3 -10 -6 -4 -9 5 -11 4 -6 -4 6 -9 14 -8 33 5 20 13 25 13 21 2 -4 -9
1 -14 12 -14 10 0 16 4 14 8 -6 9 -1 10 51 10 54 0 57 -1 49 -14 -6 -10 -4
-10 7 0 17 16 32 16 22 0 -4 -7 6 -5 21 6 21 13 28 15 24 4 -4 -9 1 -14 12
-14 10 0 16 4 14 8 -5 8 2 11 31 11 31 0 36 -3 29 -15 -6 -10 -4 -10 7 0 17
16 32 16 22 0 -4 -7 6 -5 21 6 21 13 28 15 24 4 -4 -9 1 -14 12 -14 10 0 16 4
14 8 -3 4 -2 8 3 9 4 0 18 2 31 3 12 2 22 -1 22 -6 0 -4 -5 -8 -12 -8 -6 0 -9
-3 -6 -6 4 -3 18 2 32 11 16 11 26 13 26 6 0 -6 -5 -11 -12 -11 -6 0 -8 -3 -5
-7 4 -3 15 2 26 11 14 13 21 14 27 5 5 -8 3 -10 -6 -4 -9 5 -11 4 -6 -4 6 -9
14 -8 33 5 20 13 25 13 21 2 -4 -9 1 -14 12 -14 10 0 16 4 14 8 -6 9 -7 9 54
11 23 1 42 -1 42 -5 0 -5 -5 -8 -12 -8 -6 0 -9 -3 -6 -6 4 -3 18 2 32 11 16
11 26 13 26 6 0 -6 -5 -11 -12 -11 -6 0 -9 -3 -6 -6 4 -3 18 2 32 11 16 11 26
13 26 6 0 -6 -5 -11 -12 -11 -6 0 -9 -3 -6 -6 4 -3 18 2 32 11 16 11 26 13 26
6 0 -6 -5 -11 -12 -11 -6 0 -8 -3 -5 -7 4 -3 15 2 26 11 14 13 21 14 27 5 5
-8 3 -10 -6 -4 -9 5 -11 4 -6 -4 6 -9 14 -8 33 5 20 13 25 13 21 2 -4 -9 1
-14 12 -14 10 0 16 4 14 8 -6 9 -7 9 54 11 23 1 42 -1 42 -5 0 -5 -5 -8 -12
-8 -6 0 -9 -3 -6 -6 4 -3 18 2 32 11 16 11 26 13 26 6 0 -6 -5 -11 -12 -11 -6
0 -8 -3 -5 -6 4 -4 13 -2 20 5 8 6 36 13 63 15 58 5 75 9 92 19 6 5 16 6 21 3
5 -3 11 1 15 9 3 8 11 15 19 15 7 0 29 15 48 33 39 36 94 107 83 107 -4 0 1 9
10 19 10 11 15 24 12 29 -3 5 1 15 9 22 12 10 13 16 3 28 -7 9 -8 13 -2 9 16
-9 18 101 2 121 -10 12 -10 14 -1 8 17 -9 16 213 -1 233 -8 11 -8 13 1 7 17
-9 16 213 -1 233 -8 12 -8 13 2 7 10 -6 12 8 11 66 -1 40 -7 79 -13 87 -8 11
-8 13 1 7 17 -9 16 213 -1 233 -8 11 -8 13 1 7 17 -9 16 213 -1 233 -8 12 -8
13 2 7 10 -6 12 8 11 66 -1 40 -7 79 -13 87 -8 11 -8 13 1 7 17 -9 16 213 -1
233 -8 11 -8 13 1 7 17 -9 16 213 -1 233 -8 12 -8 13 2 7 10 -6 12 8 11 66 -1
40 -7 79 -13 87 -8 11 -8 13 1 7 10 -5 12 24 11 133 -2 77 -6 137 -10 135 -8
-5 -11 5 -11 39 0 9 -7 17 -15 17 -8 0 -12 3 -9 6 18 18 -99 154 -133 154 -6
0 -10 5 -10 11 0 5 -4 8 -9 4 -5 -3 -12 -1 -16 5 -4 6 -11 8 -16 5 -5 -4 -9
-2 -9 4 0 5 -11 8 -25 7 -13 -2 -22 1 -19 5 3 5 -519 9 -1163 9 l-1168 -1 -45
-21z"/>
<path d="M796 48 c3 -5 10 -6 15 -3 13 9 11 12 -6 12 -8 0 -12 -4 -9 -9z"/>
<path d="M1756 48 c3 -5 10 -6 15 -3 13 9 11 12 -6 12 -8 0 -12 -4 -9 -9z"/>
</g>
</svg>
