<?xml version="1.0" encoding="utf-8"?>
<!-- Generator: Adobe Illustrator 19.0.0, SVG Export Plug-In . SVG Version: 6.00 Build 0)  -->
<svg version="1.1" id="Layer_1" xmlns="http://www.w3.org/2000/svg" xmlns:xlink="http://www.w3.org/1999/xlink" x="0px" y="0px"
	 viewBox="-288 379 34.8 36" style="enable-background:new -288 379 34.8 36;" xml:space="preserve">
<style type="text/css">
	.st0{fill:#293856;}
</style>
<path class="st0" d="M-260.2,383.7h-19.2c-1.7,0-3,1.3-3,3v19.2c0,0.8,0.3,1.6,0.9,2.1c0.6,0.6,1.3,0.9,2.1,0.9h19.2
	c0.8,0,1.6-0.3,2.1-0.9c0.5-0.6,0.9-1.3,0.9-2.1v-19.2C-257.2,385-258.5,383.7-260.2,383.7z M-271.5,399.3c0,0.2-0.1,0.4-0.3,0.6
	c-0.2,0.2-0.4,0.2-0.7,0.2h-4.2c-0.5,0-1-0.4-1-0.8v-10.1c0-0.4,0.4-0.8,1-0.8h4.2c0.5,0,1,0.4,1,0.8V399.3z M-261.8,396.1
	c0,0.3-0.1,0.5-0.3,0.7c-0.2,0.2-0.4,0.3-0.7,0.3h-4.2c-0.5,0-1-0.4-1-1v-6.8c0-0.5,0.4-1,1-1h4.2c0.5,0,1,0.4,1,1V396.1z"/>
<path class="st0" d="M-264.3,389.4c0-0.2-0.2-0.4-0.4-0.4h-1.9c-0.2,0-0.5,0.1-0.5,0.5v2.9c0,0.2,0.2,0.4,0.5,0.4h1.9
	c0.1,0,0.2,0,0.3-0.1c0,0,0.1-0.1,0.1-0.2V389.4z M-265.1,391l-0.6,0c-0.1,0-0.1-0.1-0.1-0.2v-1.1c0-0.2,0.1-0.2,0.1-0.2h0.6
	c0.1,0,0.1,0.1,0.1,0.2v1.1C-265,391.1-265.1,391-265.1,391z"/>
<path class="st0" d="M-274.1,389.6c0-0.3-0.2-0.6-0.4-0.6h-1.9c-0.2,0-0.6,0.2-0.5,0.6v3.9c0,0.3,0.2,0.6,0.5,0.6h1.9
	c0.2,0,0.4-0.1,0.4-0.6V389.6z M-274.8,391.6h-0.7c-0.1,0-0.2-0.1-0.2-0.2v-1.6c0-0.1,0.1-0.2,0.2-0.2h0.7c0.1,0,0.2,0.1,0.2,0.2
	v1.5C-274.6,391.5-274.7,391.6-274.8,391.6z"/>
</svg>
