<?xml version="1.0" encoding="utf-8"?>
<svg version="1.1" id="Layer_1" x="0px" y="0px" viewBox="0 0 219 219" style="enable-background:new 0 0 219 219;" xmlns="http://www.w3.org/2000/svg">
  <path id="XMLID_44_" d="M70.7,175.5c-2,0-4-0.5-5.7-1.6c-3.6-2.1-5.6-6.1-5.6-10.2l0-22.4c0-0.1,0-0.1-0.1-0.1 c-20.6-4.6-35.9-23.1-35.9-44.9V91c0-28,22.7-50.7,50.7-50.7h75.7c28,0,50.7,22.7,50.7,50.7v0.7c0,28-22.7,50.7-50.7,50.7h-38.3 c0,0-0.1,0-0.1,0l-33,30.1C76.3,174.5,73.5,175.5,70.7,175.5z M74.1,55.4c-19.7,0-35.7,16-35.7,35.7v5.2c0,16.4,12.7,30,29.1,31.1 l6.7,0.4c0.1,0,0.1,0.1,0.1,0.2v27.6c0,0.1,0.2,0.2,0.3,0.1l30.9-28.2c0,0,0.1,0,0.1,0h44.1c19.7,0,35.7-16,35.7-35.7V91 c0-19.7-16-35.7-35.7-35.7H74.1z" style="fill: rgb(218, 85, 85);"/>
</svg>