<svg xmlns="http://www.w3.org/2000/svg" version="1.0" width="16px" height="16px" viewBox="0 0 67.000000 67.000000" preserveAspectRatio="xMidYMid meet"><g transform="translate(0.000000,67.000000) scale(0.100000,-0.100000)" stroke="none"><path d="M178 513 c-134 -135 -167 -186 -168 -257 -1 -131 102 -236 231 -236 83 1 121 25 263 168 101 102 129 136 129 157 -1 22 -28 55 -134 161 -113 113 -138 134 -164 134 -25 0 -50 -20 -157 -127z m297 -273 c-119 -119 -160 -150 -213 -157 -118 -16 -218 102 -182 214 9 26 50 76 134 161 l120 122 121 -120 120 -120 -100 -100z"/><path d="M179 321 c-42 -43 -37 -112 10 -148 21 -16 91 -16 112 0 73 56 35 177 -56 177 -27 0 -44 -8 -66 -29z m91 -46 c6 -8 10 -22 8 -32 -5 -25 -61 -25 -66 0 -4 21 14 47 33 47 7 0 18 -7 25 -15z"/></g></svg>