<svg width="24" height="24" viewBox="0 0 24 24" fill="none" xmlns="http://www.w3.org/2000/svg">
<path fillRule="evenodd" clipRule="evenodd" d="M17.17 12C17.17 11.4477 17.6177 11 18.17 11H20C20.5523 11 21 11.4477 21 12C21 12.5523 20.5523 13 20 13H18.17C17.6177 13 17.17 12.5523 17.17 12Z" fill="url(#paint0_linear_254_14528)"/>
<path fillRule="evenodd" clipRule="evenodd" d="M12 3C12.5523 3 13 3.44772 13 4V5.83C13 6.38228 12.5523 6.83 12 6.83C11.4477 6.83 11 6.38228 11 5.83V4C11 3.44772 11.4477 3 12 3Z" fill="url(#paint1_linear_254_14528)"/>
<path fillRule="evenodd" clipRule="evenodd" d="M3 12C3 11.4477 3.44772 11 4 11H5.83C6.38228 11 6.83 11.4477 6.83 12C6.83 12.5523 6.38228 13 5.83 13H4C3.44772 13 3 12.5523 3 12Z" fill="url(#paint2_linear_254_14528)"/>
<path fillRule="evenodd" clipRule="evenodd" d="M12 17.1699C12.5523 17.1699 13 17.6176 13 18.1699V19.9999C13 20.5522 12.5523 20.9999 12 20.9999C11.4477 20.9999 11 20.5522 11 19.9999V18.1699C11 17.6176 11.4477 17.1699 12 17.1699Z" fill="url(#paint3_linear_254_14528)"/>
<path fillRule="evenodd" clipRule="evenodd" d="M14.2929 14.2929C14.6834 13.9024 15.3166 13.9024 15.7071 14.2929L19.7071 18.2929C20.0977 18.6834 20.0977 19.3166 19.7071 19.7071C19.3166 20.0976 18.6834 20.0976 18.2929 19.7071L14.2929 15.7071C13.9024 15.3166 13.9024 14.6834 14.2929 14.2929Z" fill="#2684FF"/>
<path fillRule="evenodd" clipRule="evenodd" d="M19.7071 4.29289C20.0977 4.68342 20.0977 5.31658 19.7071 5.70711L15.7071 9.70711C15.3166 10.0976 14.6834 10.0976 14.2929 9.70711C13.9024 9.31658 13.9024 8.68342 14.2929 8.29289L18.2929 4.29289C18.6834 3.90237 19.3166 3.90237 19.7071 4.29289Z" fill="#2684FF"/>
<path fillRule="evenodd" clipRule="evenodd" d="M4.29289 4.29289C4.68342 3.90237 5.31658 3.90237 5.70711 4.29289L9.70711 8.29289C10.0976 8.68342 10.0976 9.31658 9.70711 9.70711C9.31658 10.0976 8.68342 10.0976 8.29289 9.70711L4.29289 5.70711C3.90237 5.31658 3.90237 4.68342 4.29289 4.29289Z" fill="#2684FF"/>
<path fillRule="evenodd" clipRule="evenodd" d="M9.70711 14.2929C10.0976 14.6834 10.0976 15.3166 9.70711 15.7071L5.70711 19.7071C5.31658 20.0976 4.68342 20.0976 4.29289 19.7071C3.90237 19.3166 3.90237 18.6834 4.29289 18.2929L8.29289 14.2929C8.68342 13.9024 9.31658 13.9024 9.70711 14.2929Z" fill="#2684FF"/>
<defs>
<linearGradient id="paint0_linear_254_14528" x1="21" y1="12" x2="17.5" y2="12" gradientUnits="userSpaceOnUse">
<stop offset="0.270833" stop-color="#2684FF"/>
<stop offset="1" stop-color="#0052CC"/>
</linearGradient>
<linearGradient id="paint1_linear_254_14528" x1="12.5" y1="3" x2="12.5" y2="6.5" gradientUnits="userSpaceOnUse">
<stop offset="0.1875" stop-color="#2684FF"/>
<stop offset="1" stop-color="#0052CC"/>
</linearGradient>
<linearGradient id="paint2_linear_254_14528" x1="6.82996" y1="12" x2="3.32996" y2="12" gradientUnits="userSpaceOnUse">
<stop stop-color="#0052CC"/>
<stop offset="0.791667" stop-color="#2684FF"/>
</linearGradient>
<linearGradient id="paint3_linear_254_14528" x1="12.5" y1="16.9999" x2="12.5" y2="20.9999" gradientUnits="userSpaceOnUse">
<stop stop-color="#0052CC"/>
<stop offset="0.802083" stop-color="#2684FF"/>
</linearGradient>
</defs>
</svg>
